<svg id="Layer_1" data-name="Layer 1" xmlns="http://www.w3.org/2000/svg" xmlns:xlink="http://www.w3.org/1999/xlink" viewBox="0 0 356.97 138.56"><defs><style>.cls-1{fill:url(#radial-gradient);}.cls-2{fill:url(#radial-gradient-2);}.cls-3{fill:url(#radial-gradient-3);}.cls-4{stroke:#000;stroke-linecap:round;stroke-linejoin:round;stroke-width:0.5px;}.cls-5{fill:url(#radial-gradient-4);}</style><radialGradient id="radial-gradient" cx="147.89" cy="311.95" r="143.86" gradientUnits="userSpaceOnUse"><stop offset="0" stop-color="#3f9800"/><stop offset="1" stop-color="#c8da59"/></radialGradient><radialGradient id="radial-gradient-2" cx="5622.42" cy="-58.07" r="95.28" gradientTransform="matrix(-0.98, -0.17, 0.17, -0.98, 5668.75, 1214.48)" xlink:href="#radial-gradient"/><radialGradient id="radial-gradient-3" cx="5634.28" cy="913.57" r="86.98" gradientTransform="matrix(-0.98, 0.17, -0.17, -0.98, 5796.17, 196.61)" xlink:href="#radial-gradient"/><radialGradient id="radial-gradient-4" cx="227.37" cy="393.97" r="246.58" xlink:href="#radial-gradient"/></defs><title>logo</title><path class="cls-1" d="M123.31,313.91l-18.67,5.3a2,2,0,0,1-2.55-1.86L98.05,182.78a2,2,0,0,1,2.84-1.88l26.84,12.4a2,2,0,0,1,1.16,1.89l-4.13,116.86A2,2,0,0,1,123.31,313.91Z" transform="translate(-65.16 -180.72)"/><path class="cls-2" d="M152.44,209.18l8.87,4.63a2,2,0,0,1,1.06,2l-8.29,63.07a2,2,0,0,1-1.55,1.69l-14.09,3.09a2,2,0,0,1-2.39-2.33l13.52-70.8A2,2,0,0,1,152.44,209.18Z" transform="translate(-65.16 -180.72)"/><path class="cls-3" d="M66.21,218l9.84-5.31A2,2,0,0,1,79,214.11l11,66.26a2,2,0,0,1-2.65,2.21L72.6,277.31a2,2,0,0,1-1.32-1.67L65.17,220A2,2,0,0,1,66.21,218Z" transform="translate(-65.16 -180.72)"/><path class="cls-4" d="M189.56,217.57v9.78h-.64v-9.78h-3.68V217h8v.58Z" transform="translate(-65.16 -180.72)"/><path class="cls-4" d="M215,227.34v-5.07h-5.36v5.07H209V217h.64v4.7H215V217h.64v10.35Z" transform="translate(-65.16 -180.72)"/><path class="cls-4" d="M232.64,227.34V217h5.93v.58h-5.29v4h4.56v.58h-4.56v4.65h5.29v.58Z" transform="translate(-65.16 -180.72)"/><path class="cls-4" d="M280.22,225.47a5,5,0,0,1-.55.84,3.23,3.23,0,0,1-.73.66,3.47,3.47,0,0,1-1,.43,5.48,5.48,0,0,1-3.2-.18,3.25,3.25,0,0,1-1.33-1,4.5,4.5,0,0,1-.77-1.69,9.77,9.77,0,0,1-.25-2.35,10,10,0,0,1,.24-2.27,4.61,4.61,0,0,1,.74-1.69,3.31,3.31,0,0,1,1.31-1.06,4.6,4.6,0,0,1,1.92-.37,5.1,5.1,0,0,1,1.18.13,3.35,3.35,0,0,1,1,.39,3.14,3.14,0,0,1,.76.64,4.34,4.34,0,0,1,.58.88l-.6.34a4.17,4.17,0,0,0-.5-.77,2.58,2.58,0,0,0-1.41-.88,4.14,4.14,0,0,0-1-.11,3.82,3.82,0,0,0-1.61.31,2.67,2.67,0,0,0-1.08.91,4.06,4.06,0,0,0-.61,1.5,10.06,10.06,0,0,0-.19,2.07,9.87,9.87,0,0,0,.18,2,4.14,4.14,0,0,0,.6,1.5,2.76,2.76,0,0,0,1.1.95,3.85,3.85,0,0,0,1.68.33,3.62,3.62,0,0,0,1.17-.17,3,3,0,0,0,.84-.43,2.63,2.63,0,0,0,.58-.58,5.11,5.11,0,0,0,.39-.63Z" transform="translate(-65.16 -180.72)"/><path class="cls-4" d="M303.84,222.17a11,11,0,0,1-.21,2.24,4.8,4.8,0,0,1-.68,1.7,3.13,3.13,0,0,1-1.22,1.08,4.13,4.13,0,0,1-1.86.38,4.07,4.07,0,0,1-1.85-.38,3.19,3.19,0,0,1-1.23-1.08,4.75,4.75,0,0,1-.68-1.7,11.94,11.94,0,0,1,0-4.46,4.79,4.79,0,0,1,.68-1.7,3.18,3.18,0,0,1,1.23-1.08,4.07,4.07,0,0,1,1.85-.38,4.13,4.13,0,0,1,1.86.38,3.13,3.13,0,0,1,1.22,1.08,4.81,4.81,0,0,1,.68,1.7A11,11,0,0,1,303.84,222.17Zm-.7,0a11.11,11.11,0,0,0-.17-2,4.27,4.27,0,0,0-.55-1.5,2.54,2.54,0,0,0-1-.93,3.35,3.35,0,0,0-1.53-.32,3.41,3.41,0,0,0-1.53.31,2.5,2.5,0,0,0-1,.92,4.23,4.23,0,0,0-.55,1.5,11.18,11.18,0,0,0-.17,2.05,10.92,10.92,0,0,0,.17,2,4.35,4.35,0,0,0,.55,1.5,2.53,2.53,0,0,0,1,.94,3.84,3.84,0,0,0,3.07,0,2.54,2.54,0,0,0,1-.93,4.32,4.32,0,0,0,.55-1.5A11,11,0,0,0,303.14,222.17Z" transform="translate(-65.16 -180.72)"/><path class="cls-4" d="M327.89,227.34v-9.67l-3.2,6.61h-.49L321,217.68v9.67h-.64V217h1l3.1,6.43,3.06-6.43h1v10.35Z" transform="translate(-65.16 -180.72)"/><path class="cls-4" d="M351.45,220.13a5,5,0,0,1-.22,1.61,2.46,2.46,0,0,1-.65,1,2.57,2.57,0,0,1-1.08.57,5.65,5.65,0,0,1-1.48.18h-1.84v3.81h-.64V217h2.66a4.38,4.38,0,0,1,1.53.23,2.58,2.58,0,0,1,1,.65,2.44,2.44,0,0,1,.55,1A4.49,4.49,0,0,1,351.45,220.13Zm-.71.05a3.65,3.65,0,0,0-.18-1.23,2,2,0,0,0-.51-.8,1.94,1.94,0,0,0-.8-.44,3.92,3.92,0,0,0-1.07-.13h-2v5.38H348a4.94,4.94,0,0,0,1.25-.14,1.78,1.78,0,0,0,1.35-1.31A4.68,4.68,0,0,0,350.74,220.18Z" transform="translate(-65.16 -180.72)"/><path class="cls-4" d="M366.32,227.34,370,217h.8l3.69,10.35h-.75l-1.12-3.29h-4.42L367,227.34Zm2-3.87h4l-2-5.89Z" transform="translate(-65.16 -180.72)"/><path class="cls-4" d="M396.65,227.34l-5.59-9.6v9.6h-.64V217h.92l5.41,9.28V217h.64v10.35Z" transform="translate(-65.16 -180.72)"/><path class="cls-4" d="M417.24,223.3v4h-.64v-4L413.24,217h.7l3,5.75,3-5.75h.69Z" transform="translate(-65.16 -180.72)"/><path d="M186.07,292.7V244.34a2.65,2.65,0,0,1,5.3,0V292.7a2.65,2.65,0,0,1-5.3,0Zm28.27,1.48L196.69,268a2.65,2.65,0,1,1,4.38-3l17.67,26.15a2.68,2.68,0,0,1-.71,3.69,2.74,2.74,0,0,1-1.48.44A2.66,2.66,0,0,1,214.34,294.18Z" transform="translate(-65.16 -180.72)"/><path d="M258,293.44l-16.47-48.19a2.68,2.68,0,0,1,1.66-3.37,2.65,2.65,0,0,1,3.36,1.66L263,291.75a2.64,2.64,0,0,1-1.64,3.36,2.46,2.46,0,0,1-.87.14A2.66,2.66,0,0,1,258,293.44Z" transform="translate(-65.16 -180.72)"/><path d="M270,292.7V244.34a2.65,2.65,0,0,1,5.3,0V292.7a2.65,2.65,0,0,1-5.3,0Zm28.27,1.48L280.63,268a2.65,2.65,0,1,1,4.38-3l17.67,26.15a2.68,2.68,0,0,1-.71,3.69,2.73,2.73,0,0,1-1.48.44A2.66,2.66,0,0,1,298.29,294.18Z" transform="translate(-65.16 -180.72)"/><path d="M312.29,247.09a2.65,2.65,0,1,1,0-5.3h28.91a2.65,2.65,0,0,1,0,5.3Z" transform="translate(-65.16 -180.72)"/><path d="M355.46,290.44a16.63,16.63,0,0,1-5-11.91V244.07a2.65,2.65,0,0,1,5.3,0v34.46a11.68,11.68,0,0,0,23.36,0,2.65,2.65,0,1,1,5.3,0,16.63,16.63,0,0,1-5,11.91,17.11,17.11,0,0,1-24,0Z" transform="translate(-65.16 -180.72)"/><path d="M395.75,291.62a14.72,14.72,0,0,1-5.51-9.29,2.64,2.64,0,1,1,5.23-.76c.67,4.61,5.6,8.5,10.78,8.5,5.67,0,10.3-4.26,10.3-9.49,0-5.92-6.87-8.62-11-9.7a26.59,26.59,0,0,1-10-4.65A13.62,13.62,0,0,1,392,262a12,12,0,0,1-1.4-5.69,2.65,2.65,0,1,1,5.3,0,7.16,7.16,0,0,0,3,5.78,21.4,21.4,0,0,0,8,3.64,25.45,25.45,0,0,1,10,4.82,12.84,12.84,0,0,1,4.89,10,14.28,14.28,0,0,1-4.63,10.51,16,16,0,0,1-11,4.28A16.91,16.91,0,0,1,395.75,291.62Z" transform="translate(-65.16 -180.72)"/><path class="cls-5" d="M187,281.43a2.68,2.68,0,0,1-.42-3.73l27.83-35a2.68,2.68,0,0,1,3.73-.42,2.65,2.65,0,0,1,.42,3.73l-27.81,35a2.66,2.66,0,0,1-3.75.42Z" transform="translate(-65.16 -180.72)"/><path class="cls-5" d="M226.72,295.23a2.67,2.67,0,0,1-1.66-3.36l16.47-48.2a2.65,2.65,0,1,1,5,1.71l-16.47,48.19a2.63,2.63,0,0,1-2.51,1.8A2.37,2.37,0,0,1,226.72,295.23Z" transform="translate(-65.16 -180.72)"/><path class="cls-5" d="M271,281.43a2.68,2.68,0,0,1-.42-3.73l27.83-35a2.68,2.68,0,0,1,3.73-.42,2.65,2.65,0,0,1,.42,3.73l-27.81,35a2.66,2.66,0,0,1-3.75.42Z" transform="translate(-65.16 -180.72)"/><path class="cls-5" d="M324.05,292.79V252.47a2.65,2.65,0,1,1,5.3,0v40.32a2.65,2.65,0,0,1-5.3,0Z" transform="translate(-65.16 -180.72)"/><path class="cls-5" d="M379.14,278.55V244.07a2.65,2.65,0,1,1,5.3,0v34.47a2.65,2.65,0,0,1-5.3,0Z" transform="translate(-65.16 -180.72)"/><path class="cls-5" d="M416.85,255c-.69-4.67-5.07-8.2-10.21-8.2a2.65,2.65,0,1,1,0-5.3,16.19,16.19,0,0,1,10.25,3.62,14.65,14.65,0,0,1,5.21,9.12,2.65,2.65,0,0,1-2.24,3,2.93,2.93,0,0,1-.39,0A2.65,2.65,0,0,1,416.85,255Z" transform="translate(-65.16 -180.72)"/></svg>