<?xml version="1.0" encoding="UTF-8" standalone="no"?>
<svg
   xmlns:dc="http://purl.org/dc/elements/1.1/"
   xmlns:cc="http://creativecommons.org/ns#"
   xmlns:rdf="http://www.w3.org/1999/02/22-rdf-syntax-ns#"
   xmlns:svg="http://www.w3.org/2000/svg"
   xmlns="http://www.w3.org/2000/svg"
   id="svg8"
   version="1.1"
   viewBox="0 0 174.41347 215.26308"
   height="215.26308mm"
   width="174.41347mm">
  <defs
     id="defs2" />
  <metadata
     id="metadata5">
    <rdf:RDF>
      <cc:Work
         rdf:about="">
        <dc:format>image/svg+xml</dc:format>
        <dc:type
           rdf:resource="http://purl.org/dc/dcmitype/StillImage" />
        <dc:title></dc:title>
      </cc:Work>
    </rdf:RDF>
  </metadata>
  <g
     transform="translate(-13.397442,-13.734734)"
     id="layer1">
    <path
       transform="scale(0.26458333)"
       id="path902"
       d=""
       style="fill:#ffc527;fill-opacity:1;stroke-width:0.12626907" />
    <path
       transform="scale(0.26458333)"
       id="path906"
       d=""
       style="fill:#ffc527;fill-opacity:1;stroke-width:0.12626907" />
    <path
       transform="scale(0.26458333)"
       id="path916"
       d=""
       style="fill:#ffc527;fill-opacity:1;stroke-width:0.12626907" />
    <path
       id="path939"
       d="m 14.62805,228.6982 c -1.22951,-0.7147 -1.23208,-0.76269 -1.23051,-23.04133 0.001,-13.88109 0.0958,-21.31632 0.28027,-21.98067 0.20976,-0.75538 0.50699,-1.11277 1.20048,-1.44347 0.85146,-0.40603 0.97626,-0.40685 1.63796,-0.0107 0.39395,0.23587 0.85758,0.8259 1.03029,1.31118 0.23104,0.6492 0.3175,6.05558 0.3272,20.4615 l 0.0132,19.57916 71.17643,0.0666 71.17643,0.0666 v -17.46298 -17.46298 h -23.16617 c -16.7559,0 -23.50974,-0.0854 -24.40781,-0.3085 -1.56466,-0.38874 -2.86926,-1.1997 -3.99791,-2.48516 -1.76071,-2.00534 -1.73344,-1.80319 -1.82145,-13.49794 -0.0779,-10.35724 -0.0664,-10.63891 0.49874,-12.14935 0.69738,-1.86393 2.13815,-3.49675 3.86288,-4.37781 l 1.27443,-0.65103 23.87865,-0.0716 23.87864,-0.0716 v -16.35727 -16.35727 l -25.73073,-0.16775 c -69.27091,-0.45156 -107.66801,-2.80702 -117.54114,-7.21048 -2.59047,-1.15536 -3.84398,-3.29589 -3.26849,-5.58136 0.49947,-1.98358 2.98761,-3.72339 7.48302,-5.23245 2.53528,-0.85106 8.39187,-2.33001 11.727,-2.96138 2.41871,-0.45788 2.45639,-0.45696 3.17282,0.0779 1.26022,0.94089 1.44186,2.76294 0.40203,4.03281 -0.35548,0.43412 -1.22136,0.72532 -3.64138,1.22459 -6.00621,1.23915 -13.36146,3.34767 -13.36146,3.83031 0,0.36014 3.63172,1.22381 8.20209,1.95057 11.55297,1.83712 34.13325,3.27775 62.70624,4.00068 3.27422,0.0828 7.96307,0.20913 10.41966,0.28065 l 4.46652,0.13003 -0.46665,-0.73421 c -0.25665,-0.40382 -0.67336,-0.97234 -0.92601,-1.26338 -0.83532,-0.96224 -11.93226,-16.598409 -11.84311,-16.687559 0.0851,-0.085 1.30449,-0.96066 10.65272,-7.64904 2.47385,-1.76997 12.05838,-8.63496 21.29896,-15.255532 19.23881,-13.78397 41.54174,-29.740426 42.77139,-30.600443 l 0.83493,-0.583954 3.24568,4.564307 c 1.78512,2.51037 3.85456,5.39774 4.59874,6.41639 0.74419,1.01864 1.52729,2.11101 1.74022,2.42749 0.21294,0.31647 2.47027,3.47163 5.01631,7.01146 2.54603,3.53982 4.84685,6.8753 5.11293,7.41217 0.67423,1.36039 0.66332,4.01681 -0.0227,5.533632 -0.28935,0.63974 -0.98723,1.5926 -1.55085,2.11747 -0.56361,0.52487 -5.84678,4.40326 -11.74038,8.61866 -19.5959,14.015979 -34.22892,24.486349 -37.24706,26.651399 l -2.98351,2.14021 14.68416,0.1323 14.68416,0.13229 0.60248,0.60265 0.60248,0.60265 0.068,54.4743 0.068,54.47429 -0.68685,0.81628 -0.68685,0.81628 -73.99367,-0.008 c -52.13657,-0.006 -74.13776,-0.0918 -74.48147,-0.29161 z m 109.2893,-47.73889 c 1.95872,-0.95831 3.73866,-2.74899 4.72073,-4.74921 0.70351,-1.43287 0.77777,-1.83727 0.77777,-4.23552 0,-2.4617 -0.0621,-2.77754 -0.86798,-4.41452 -3.05833,-6.21234 -11.08166,-7.54033 -16.03739,-2.65443 -4.35748,4.29606 -3.65982,11.75126 1.42975,15.27833 1.89306,1.31189 3.54262,1.74897 6.14404,1.62795 1.85437,-0.0863 2.61054,-0.25446 3.83308,-0.8526 z m 34.61714,-92.198539 c 4.08276,-1.97295 5.39869,-7.32644 2.67778,-10.89379 -1.36018,-1.783312 -2.99616,-2.648572 -5.28557,-2.795492 -2.46948,-0.15848 -4.15488,0.51031 -5.84825,2.320662 -3.75578,4.01523 -1.75193,10.51698 3.67907,11.93722 1.17181,0.30643 3.55263,0.023 4.77697,-0.5686 z m 11.8641,-5.77955 c 6.61026,-3.25421 7.20842,-12.225202 1.09557,-16.430962 -5.53055,-3.80511 -13.83277,-0.22721 -14.60513,6.2942 -0.15072,1.27258 -0.12183,1.37215 0.39815,1.37215 0.87879,0 2.72112,0.80612 3.85114,1.68509 0.6641,0.51656 1.30988,1.398152 1.81527,2.478152 0.68604,1.46603 0.77147,1.90619 0.68095,3.50826 -0.12166,2.15295 -0.17991,2.11398 3.0043,2.00963 1.67145,-0.0548 2.34071,-0.21792 3.75975,-0.91652 z M 97.40127,113.78133 c -0.7276,-0.4858 -7.99042,-5.01308 -16.13958,-10.06063 -8.14917,-5.047539 -15.26952,-9.470519 -15.823,-9.828829 -1.23607,-0.80022 -2.41744,-2.60917 -2.8317,-4.33599 -0.44085,-1.83765 0.007,-3.6303 1.51667,-6.07287 0.67666,-1.0947 3.48519,-5.62177 6.24117,-10.060152 2.75599,-4.43839 5.93211,-9.55807 7.05806,-11.37708 1.12594,-1.81902 4.30579,-6.9387 7.06634,-11.37709 2.76054,-4.438383 6.3082,-10.153382 7.88368,-12.699997 14.26591,-23.059439 13.58218,-22.021182 15.07976,-22.898824 1.704,-0.998611 3.23874,-1.285507 4.96247,-0.927663 1.0626,0.220596 2.96939,1.262819 7.9028,4.319555 3.57626,2.215843 10.74211,6.648183 15.92411,9.849641 5.18199,3.201458 9.42718,5.892098 9.43374,5.979202 0.007,0.0871 -1.14892,0.990235 -2.56775,2.006962 -4.91839,3.524496 -20.34885,14.584564 -28.90573,20.718714 -4.72943,3.39038 -13.59958,9.73674 -19.71146,14.10303 -6.11187,4.36629 -11.44344,8.244262 -11.84794,8.617722 -0.40449,0.37346 -1.0891,1.38675 -1.52135,2.25176 -0.63547,1.27169 -0.78591,1.91018 -0.78591,3.33544 0,0.96948 0.18067,2.28992 0.40149,2.93431 0.33478,0.97696 8.72751,13.016029 15.84922,22.735149 3.01342,4.11247 3.06538,4.29021 0.81491,2.78764 z m -17.19792,-2.91965 c -9.88444,-1.64082 -23.53061,-3.88172 -28.4427,-4.67071 -3.14853,-0.50572 -5.30349,-0.98966 -6.04038,-1.35648 -1.26588,-0.63015 -2.82231,-2.20935 -3.2657,-3.31349 -0.81485,-2.029169 -0.77929,-2.369829 2.06256,-19.763769 4.54252,-27.803022 5.08491,-31.113292 5.50576,-33.602082 0.22147,-1.30969 1.30713,-7.977186 2.41259,-14.816665 2.40427,-14.875205 2.38144,-14.751068 2.92326,-15.892877 0.54169,-1.141534 2.04795,-2.616012 3.26849,-3.199519 1.682,-0.804127 3.24263,-0.714563 11.52196,0.661231 4.36562,0.725445 12.55117,2.0716 18.1901,2.991456 5.63893,0.919853 10.2526,1.757095 10.2526,1.860536 0,0.103444 -2.09755,3.558262 -4.66121,7.677375 -8.25684,13.266467 -12.66887,20.363333 -15.18324,24.422633 -5.11213,8.25324 -5.82413,9.40129 -9.18907,14.81666 -1.89887,3.05594 -5.35572,8.61534 -7.68189,12.354222 -3.66741,5.89468 -4.27114,7.01971 -4.5435,8.46667 -0.49806,2.64602 0.26846,5.1623 2.1606,7.09265 0.49923,0.50933 3.10098,2.28389 5.78166,3.94348 21.46146,13.286649 21.40088,13.248029 20.74895,13.225439 -0.29104,-0.0101 -2.91042,-0.41364 -5.82084,-0.89676 z m 6.32541,-20.164449 c -2.40888,-3.40557 -2.74799,-5.95216 -1.16233,-8.72855 0.67367,-1.17956 1.49726,-1.87255 6.40397,-5.388482 3.09698,-2.21916 6.94056,-4.97687 8.54129,-6.12825 1.60073,-1.15138 4.33916,-3.11549 6.08541,-4.36469 1.74625,-1.2492 6.50875,-4.66142 10.58334,-7.58271 30.69635,-22.007932 35.71553,-25.530309 36.81976,-25.839475 2.37913,-0.666115 5.21096,0.121481 6.85667,1.906995 0.89767,0.973924 2.84338,3.680259 2.70997,3.769368 -0.24181,0.161528 -11.50763,8.217602 -21.64786,15.480182 -6.33016,4.53374 -13.47391,9.64708 -15.875,11.36297 -5.50342,3.93291 -28.43754,20.378202 -30.55938,21.913112 -0.87312,0.63161 -2.50374,1.79074 -3.62358,2.57584 -1.11985,0.7851 -2.44686,1.74076 -2.9489,2.12369 l -0.91282,0.69624 z"
       style="fill:#5d5d5d;stroke-width:0.26458332" />
  </g>
</svg>
