<svg id="Layer_1" data-name="Layer 1" xmlns="http://www.w3.org/2000/svg" viewBox="0 0 73.13 51.75" width="100" height="100"><defs><style>.cls-1,.cls-2{fill:none;stroke:#333;}.cls-1{stroke-linecap:round;stroke-linejoin:round;stroke-width:1.5px;}.cls-2{stroke-miterlimit:10;}</style></defs><title>analytics</title><rect class="cls-1" x="0.75" y="0.75" width="71.63" height="50.25" rx="3.78" ry="3.78"/><path class="cls-1" d="M4.53.75H68.6a3.78,3.78,0,0,1,3.78,3.78V7.87a0,0,0,0,1,0,0H.75a0,0,0,0,1,0,0V4.53A3.78,3.78,0,0,1,4.53.75Z"/><circle class="cls-2" cx="67.15" cy="4.31" r="1.69"/><circle class="cls-2" cx="61.42" cy="4.31" r="1.69"/><circle class="cls-2" cx="55.68" cy="4.31" r="1.69"/><rect class="cls-1" x="9.58" y="21.51" width="3.96" height="12.86"/><rect class="cls-1" x="16.85" y="15.68" width="3.96" height="18.69"/><rect class="cls-1" x="24.12" y="25.02" width="3.96" height="9.34"/><polyline class="cls-1" points="5.74 14.68 5.74 37.6 30.96 37.6"/><circle class="cls-1" cx="53.99" cy="26.14" r="4.52"/><circle class="cls-1" cx="53.99" cy="26.14" r="11.46"/><line class="cls-1" x1="54.94" y1="21.62" x2="54.94" y2="14.68"/><line class="cls-1" x1="56.82" y1="29.66" x2="61.74" y2="34.57"/><line class="cls-1" x1="36.57" y1="12.42" x2="36.57" y2="47.7"/><line class="cls-1" x1="5.74" y1="42.54" x2="30.96" y2="42.54"/><line class="cls-1" x1="11.71" y1="45.45" x2="24.99" y2="45.45"/><line class="cls-1" x1="41.38" y1="42.54" x2="66.61" y2="42.54"/><line class="cls-1" x1="47.35" y1="45.45" x2="60.64" y2="45.45"/></svg>