<svg id="Layer_1" data-name="Layer 1" xmlns="http://www.w3.org/2000/svg" viewBox="0 0 73.13 51.75" width="100" height="100"><defs><style>.cls-1,.cls-2{fill:none;stroke:#333;stroke-linecap:round;stroke-linejoin:round;}.cls-1{stroke-width:1.5px;}</style></defs><title>kbr</title><rect class="cls-1" x="0.75" y="0.75" width="71.63" height="50.25" rx="3.78" ry="3.78"/><path class="cls-1" d="M4.53.75H68.6a3.78,3.78,0,0,1,3.78,3.78V7.87a0,0,0,0,1,0,0H.75a0,0,0,0,1,0,0V4.53A3.78,3.78,0,0,1,4.53.75Z"/><circle class="cls-2" cx="67.15" cy="4.31" r="1.69"/><circle class="cls-2" cx="61.42" cy="4.31" r="1.69"/><circle class="cls-2" cx="55.68" cy="4.31" r="1.69"/><polyline class="cls-1" points="11.26 22.41 5.13 22.41 5.13 12.74 16.48 12.74"/><polyline class="cls-1" points="23.23 12.74 50.36 12.74 50.36 22.41 37 22.41"/><rect class="cls-1" x="54.93" y="12.74" width="13.17" height="19.77"/><line class="cls-1" x1="41.77" y1="25.88" x2="50.36" y2="25.88"/><line class="cls-1" x1="5.13" y1="25.88" x2="16.93" y2="25.88"/><line class="cls-1" x1="37" y1="29.79" x2="50.36" y2="29.79"/><line class="cls-1" x1="5.13" y1="29.79" x2="21.84" y2="29.79"/><line class="cls-1" x1="5.13" y1="33.7" x2="23.73" y2="33.7"/><line class="cls-1" x1="30.95" y1="37.61" x2="43.19" y2="37.61"/><line class="cls-1" x1="5.13" y1="37.61" x2="25.33" y2="37.61"/><line class="cls-1" x1="54.93" y1="37.61" x2="68.1" y2="37.61"/><line class="cls-1" x1="54.93" y1="41.52" x2="65.45" y2="41.52"/><line class="cls-1" x1="5.13" y1="41.52" x2="43.19" y2="41.52"/><line class="cls-1" x1="5.13" y1="45.43" x2="43.19" y2="45.43"/></svg>