<svg id="Layer_1" data-name="Layer 1" xmlns="http://www.w3.org/2000/svg" viewBox="0 0 63.31 57.4"><defs><style>.cls-1{fill:none;stroke:#333;stroke-linecap:round;stroke-linejoin:round;stroke-width:1.5px;}</style></defs><title>pr</title><path class="cls-1" d="M955.54,343.46h-5a1.73,1.73,0,0,1-1.73-1.73h0A1.73,1.73,0,0,0,947,340H935.75v23h2.45l-1.43,17.28a5.15,5.15,0,1,0,10.27,0L945.6,363H947a1.73,1.73,0,0,0,1.73-1.73,1.73,1.73,0,0,1,1.73-1.73h5a3.94,3.94,0,0,0,3.94-3.94v-8.2A3.94,3.94,0,0,0,955.54,343.46Z" transform="translate(-896.92 -329.23)"/><path class="cls-1" d="M932,339.95l-19.26-9.63a3.19,3.19,0,0,0-4.62,2.86v36.65a3.19,3.19,0,0,0,4.62,2.86L932,363.05Z" transform="translate(-896.92 -329.23)"/><path class="cls-1" d="M904.29,344.73a6.77,6.77,0,0,0,0,13.54Z" transform="translate(-896.92 -329.23)"/><path class="cls-1" d="M945.62,343.46h-6.71v3h6.71Z" transform="translate(-896.92 -329.23)"/><path class="cls-1" d="M928.93,342.3l-17.22-8v6L928.93,345Z" transform="translate(-896.92 -329.23)"/><line class="cls-1" x1="14.78" y1="40.37" x2="32.01" y2="32.01"/><line class="cls-1" x1="41.99" y1="30.91" x2="48.7" y2="30.91"/><line class="cls-1" x1="53.37" y1="17.19" x2="53.37" y2="27.28"/></svg>