<svg id="Layer_1" data-name="Layer 1" xmlns="http://www.w3.org/2000/svg" viewBox="0 0 70.01 54.5" width="100" height="100"><defs><style>.cls-1,.cls-2{fill:none;stroke:#333;stroke-width:1.5px;}.cls-1{stroke-miterlimit:10;}.cls-2{stroke-linecap:round;stroke-linejoin:round;}</style></defs><title>seo</title><polygon class="cls-1" points="16.3 16.43 32.17 23.36 26.12 26.31 23.25 32.3 16.3 16.43"/><line class="cls-1" x1="30.8" y1="31.03" x2="26.12" y2="26.31"/><line class="cls-1" x1="15.05" y1="9.27" x2="15.05" y2="12.61"/><line class="cls-1" x1="9.01" y1="13" x2="11.9" y2="14.67"/><line class="cls-1" x1="9.21" y1="20.09" x2="12.11" y2="18.42"/><line class="cls-1" x1="15.46" y1="23.46" x2="15.46" y2="20.12"/><line class="cls-1" x1="21.29" y1="12.64" x2="18.4" y2="14.31"/><path class="cls-1" d="M770.38,107.88c0,1.78-5.26,1.78-5.26,0V91.5h5.26Z" transform="translate(-715.04 -55.47)"/><line class="cls-1" x1="50.08" y1="51.12" x2="55.34" y2="51.12"/><line class="cls-1" x1="50.08" y1="38.7" x2="55.34" y2="38.7"/><circle class="cls-1" cx="52.71" cy="20.98" r="12.72"/><circle class="cls-1" cx="52.71" cy="20.98" r="9.87"/><line class="cls-1" x1="54.54" y1="36.03" x2="54.54" y2="33.58"/><line class="cls-1" x1="50.88" y1="36.03" x2="50.88" y2="33.58"/><path class="cls-2" d="M765.12,102.38H721.21A5.43,5.43,0,0,1,715.79,97V61.64a5.43,5.43,0,0,1,5.43-5.43h57.66a5.43,5.43,0,0,1,5.43,5.43V97a5.43,5.43,0,0,1-5.43,5.43h-8.5" transform="translate(-715.04 -55.47)"/><polygon class="cls-2" points="43.91 53.69 26.11 53.69 28.33 46.91 41.68 46.91 43.91 53.69"/><line class="cls-2" x1="22.85" y1="53.69" x2="47.17" y2="53.69"/><line class="cls-2" x1="55.34" y1="40.6" x2="69.26" y2="40.6"/><line class="cls-2" x1="0.75" y1="40.6" x2="50.08" y2="40.6"/></svg>