<svg id="Layer_1" data-name="Layer 1" xmlns="http://www.w3.org/2000/svg" viewBox="0 0 73.13 51.75" width="100" height="100"><defs><style>.cls-1,.cls-2{fill:none;stroke:#333;stroke-linecap:round;stroke-linejoin:round;}.cls-1{stroke-width:1.5px;}</style></defs><title>serm</title><rect class="cls-1" x="0.75" y="0.75" width="71.63" height="50.25" rx="3.78" ry="3.78"/><path class="cls-1" d="M4.53.75H68.6a3.78,3.78,0,0,1,3.78,3.78V7.87a0,0,0,0,1,0,0H.75a0,0,0,0,1,0,0V4.53A3.78,3.78,0,0,1,4.53.75Z"/><circle class="cls-2" cx="67.15" cy="4.31" r="1.69"/><circle class="cls-2" cx="61.42" cy="4.31" r="1.69"/><circle class="cls-2" cx="55.68" cy="4.31" r="1.69"/><line class="cls-1" x1="15.89" y1="12.76" x2="50.22" y2="12.76"/><line class="cls-1" x1="18.06" y1="16.47" x2="50.22" y2="16.47"/><line class="cls-1" x1="18.06" y1="20.18" x2="50.22" y2="20.18"/><line class="cls-1" x1="7.74" y1="25.72" x2="50.22" y2="25.72"/><line class="cls-1" x1="11.95" y1="29.43" x2="50.22" y2="29.43"/><line class="cls-1" x1="11.95" y1="33.14" x2="50.22" y2="33.14"/><line class="cls-1" x1="7.74" y1="38.68" x2="50.22" y2="38.68"/><line class="cls-1" x1="11.95" y1="42.39" x2="50.22" y2="42.39"/><line class="cls-1" x1="11.95" y1="46.1" x2="50.22" y2="46.1"/><rect class="cls-1" x="53.99" y="12.73" width="14.84" height="20.4"/><circle class="cls-1" cx="10.14" cy="17.7" r="4.97"/><polyline class="cls-1" points="7.14 17.7 9.36 19.92 13.19 16.1"/></svg>