<svg id="Layer_1" data-name="Layer 1" xmlns="http://www.w3.org/2000/svg" viewBox="0 0 69.74 69.69" width="100" height="100"><defs><style>.cls-1{fill:none;stroke:#333;stroke-linecap:round;stroke-linejoin:round;stroke-width:1.5px;}</style></defs><title>Vector</title><path class="cls-1" d="M979.27,189.14c1.05-.18,1.37-1.14,1.9-1.84a18.76,18.76,0,0,0,2.68-5.48,18.12,18.12,0,0,0,.67-7,18.47,18.47,0,0,0-5-11.48,19.21,19.21,0,0,0-33.09,15.55,18.46,18.46,0,0,0,3.48,8.65c.48.63.81,1.45,1.74,1.59" transform="translate(-945.51 -126.59)"/><path class="cls-1" d="M1011,148.29c.91-.15,1.26-.92,1.65-1.59a12.28,12.28,0,0,0,1.65-8.73,12.57,12.57,0,0,0-6.46-9,12.22,12.22,0,0,0-6.25-1.62,12.71,12.71,0,0,0-12.21,9.3,12.24,12.24,0,0,0,1.8,10.73,1.72,1.72,0,0,0,1.22.91" transform="translate(-945.51 -126.59)"/><path class="cls-1" d="M967.87,178.74a12.29,12.29,0,0,0,2.24-3.08,3.6,3.6,0,0,1,1.4-1.77,2.78,2.78,0,0,0,.25-4.11,1.63,1.63,0,0,1-.58-1.35,5.58,5.58,0,0,0-4.73-5.68,5.8,5.8,0,0,0-6.82,5.51,1.62,1.62,0,0,1-.66,1.6c-1.2.84-.54,3.78.74,4.3a1.31,1.31,0,0,1,.69.74,13.19,13.19,0,0,0,1.63,2.69,4.09,4.09,0,0,0,5.09,1.32,5.94,5.94,0,0,1,.66-.17" transform="translate(-945.51 -126.59)"/><path class="cls-1" d="M966.21,139.56a2.2,2.2,0,0,1-1.42,1.33c-1.08.43-2.16.84-3.24,1.25s-1.35,1.62-1.7,2.6c-.13.37.24.91.63,1.23a10.71,10.71,0,0,0,7,2.68,9.61,9.61,0,0,0,7.11-2.72,14.24,14.24,0,0,0,2.13-2.45,12,12,0,0,0,1.24-2.92,9.84,9.84,0,0,0-.62-6.89,10.36,10.36,0,0,0-4.7-5,10.71,10.71,0,0,0-14.32,4.09,11.39,11.39,0,0,0-1.13,7.42,18.25,18.25,0,0,0,1.54,3.82,1.33,1.33,0,0,0,1,.74" transform="translate(-945.51 -126.59)"/><path class="cls-1" d="M954,148.13c-.64-.3-1.06-.88-1.73-1.19a4.23,4.23,0,0,0-5.86,2.94,4.24,4.24,0,0,0,5.84,4.82,4.25,4.25,0,0,0,2.25-5.49l-.42-1" transform="translate(-945.51 -126.59)"/><path class="cls-1" d="M992.58,149.29a16.4,16.4,0,0,0,5.16,3,12.76,12.76,0,0,0,12.15-2.34,2.53,2.53,0,0,0,.84-1.08c.12-.31.32-.6,0-.92a.86.86,0,0,1-.17-.49,2.76,2.76,0,0,0-2.24-2.53c-1.25-.4-2.42-1-3.67-1.48a2.34,2.34,0,0,1-1.27-1.39.59.59,0,0,1,.19-.75,5.82,5.82,0,0,0,1.4-2.09,1.59,1.59,0,0,1,.51-.58,1.84,1.84,0,0,0,.25-3,1.37,1.37,0,0,1-.26-.91,3.8,3.8,0,0,0-3.32-3.73,3.88,3.88,0,0,0-4.17,2.65,2.46,2.46,0,0,0-.16,1,1.37,1.37,0,0,1-.4,1.18,1.79,1.79,0,0,0,.17,2.63,3.63,3.63,0,0,1,1.08,1.51,5,5,0,0,0,1.46,1.85,2.27,2.27,0,0,0,2,.29,10.76,10.76,0,0,0,1.14-.3" transform="translate(-945.51 -126.59)"/><path class="cls-1" d="M1008.81,169.93a11.15,11.15,0,0,0,2.66-.16,4.24,4.24,0,1,0-3.66-.51,4.86,4.86,0,0,1,.91.67" transform="translate(-945.51 -126.59)"/><path class="cls-1" d="M995.91,191.56c-1-.39-1.41-1.37-1.82-2.25a11.25,11.25,0,0,1-.86-5.9,11.45,11.45,0,0,1,4.78-7.54,11.47,11.47,0,0,1,3.8-1.46,12.41,12.41,0,0,1,5.23.23,8.64,8.64,0,0,1,2.66,1.38,10.36,10.36,0,0,1,4.54,6.74,10,10,0,0,1-1.62,8,1.65,1.65,0,0,1-1.09.83" transform="translate(-945.51 -126.59)"/><path class="cls-1" d="M952.56,131.74a10.91,10.91,0,0,0,.08-1.33,3.17,3.17,0,1,0-4.73,2.91,3.07,3.07,0,0,0,3.57-.34c.39-.36.73-.77,1.09-1.16" transform="translate(-945.51 -126.59)"/><path class="cls-1" d="M1007.73,182.16a.8.8,0,0,0-.09-.25c-.88-1.1-.45-2.74-1.64-3.77a3.12,3.12,0,0,0-3.34-.7,3,3,0,0,0-2.08,2.89,1.2,1.2,0,0,1-.33.93,1.3,1.3,0,0,0-.07,2c.91.84,1.27,2,2.13,2.87a2.72,2.72,0,0,0,2.92,0,6.69,6.69,0,0,0,1.24-1.67,1.78,1.78,0,0,1,.51-.75,1.73,1.73,0,0,0,.75-1.41" transform="translate(-945.51 -126.59)"/><path class="cls-1" d="M968.87,139.47c.94-.9,1.32-2.22,2.31-3.1a1.4,1.4,0,0,0,0-2,1.37,1.37,0,0,1-.4-1.1,3.26,3.26,0,0,0-3.32-2.92,3.18,3.18,0,0,0-3.08,3.09,1.15,1.15,0,0,1-.32.93,1.32,1.32,0,0,0-.07,2,10,10,0,0,1,1.62,2.29,2.38,2.38,0,0,0,2.43,1,5.91,5.91,0,0,0,.75-.16" transform="translate(-945.51 -126.59)"/><path class="cls-1" d="M1002.48,186.4a2.66,2.66,0,0,1-1.57,1.35c-1.14.39-2.22.93-3.34,1.39s-1.25,1.58-1.53,2.51c-.15.5.42,1,.87,1.39a10.94,10.94,0,0,0,5.65,2.41,10.51,10.51,0,0,0,7.73-2.16c1.35-1.05,1.35-1.4.78-3-.42-1.17-1.48-1.3-2.36-1.72-.71-.35-1.51-.53-2.23-.86a2.19,2.19,0,0,1-1.34-1.4" transform="translate(-945.51 -126.59)"/><path class="cls-1" d="M967.87,178.83c.45,1.88,2.05,2.45,3.58,3.08,1.77.73,3.56,1.43,5.32,2.17,1.62.68,1.89,2.15,2.08,3.66,0,.25-.07.5.07.75a1.41,1.41,0,0,1-.49,1.91,18.79,18.79,0,0,1-4.62,3.08,20.05,20.05,0,0,1-4.37,1.64,18.57,18.57,0,0,1-11.31-1.06,18.31,18.31,0,0,1-5.68-3.64c-.6-.59-.87-1.07-.49-1.86.23-.46,0-1,.1-1.49a4.09,4.09,0,0,1,2.81-3.35c2-.68,3.89-1.53,5.83-2.31a4,4,0,0,0,2.33-2.58" transform="translate(-945.51 -126.59)"/><path class="cls-1" d="M1000,142c-.39,1.31-1.61,1.52-2.63,2s-2.11.84-3.16,1.26a1.92,1.92,0,0,0-1.24,1.33,5.61,5.61,0,0,0-.51,2.49c.08.41-.27.6-.5.83l-9.4,9.4-3.41,3.41" transform="translate(-945.51 -126.59)"/><path class="cls-1" d="M995,170.67a15.17,15.17,0,0,0,1-1.42,3.07,3.07,0,0,0-.83-3.89,3,3,0,0,0-4,0,3.13,3.13,0,0,0-.82,4.07,3.24,3.24,0,0,0,4.06,1.34,2.85,2.85,0,0,1,.5-.09" transform="translate(-945.51 -126.59)"/><path class="cls-1" d="M978.52,138.72c3,.18,5.94.28,8.9.58a12.39,12.39,0,0,0,1.25,0" transform="translate(-945.51 -126.59)"/><path class="cls-1" d="M993.08,182.57c-2.85-.8-5.77-1.31-8.65-2" transform="translate(-945.51 -126.59)"/><path class="cls-1" d="M968.87,139.56c.62,1.23,1.92,1.4,3,1.91.68.32,1.38.56,2.08.84a1.46,1.46,0,0,1,.88,1c.1.47.41.81.54,1.24" transform="translate(-945.51 -126.59)"/><path class="cls-1" d="M958.3,186.82c-.29,2.19-.44,4.41-.92,6.57,0,0-.05.06-.08.08" transform="translate(-945.51 -126.59)"/><path class="cls-1" d="M972.61,186.82a38.48,38.48,0,0,0,1,6.57" transform="translate(-945.51 -126.59)"/><path class="cls-1" d="M995,170.76c.89,1.41,1.78,2.82,2.65,4.25.14.23.37.43.34.74" transform="translate(-945.51 -126.59)"/><path class="cls-1" d="M958.89,144.55l-4.83,3.58" transform="translate(-945.51 -126.59)"/><path class="cls-1" d="M952.65,131.82l4.74,2" transform="translate(-945.51 -126.59)"/><path class="cls-1" d="M1008.81,170l-1.58,4.49" transform="translate(-945.51 -126.59)"/></svg>