<svg id="Layer_1" data-name="Layer 1" xmlns="http://www.w3.org/2000/svg" viewBox="0 0 71.43 55.53" width="100" height="100"><defs><style>.cls-1{fill:none;stroke:#333;stroke-linecap:round;stroke-linejoin:round;stroke-width:1.5px;}</style></defs><title>icon</title><path class="cls-1" d="M950.05,271.26V248.51a2.53,2.53,0,0,1,2.53-2.53h22.75a2.53,2.53,0,0,1,2.53,2.53v22.75a2.53,2.53,0,0,1-2.53,2.53h-7V263.26h4.55v-4.64H968.3c0-.64,0-1.2,0-1.75,0-1,.36-1.3,1.37-1.3h3.2v-4.64c-1.24,0-2.43,0-3.62,0a4.56,4.56,0,0,0-3.06,1.11,6.28,6.28,0,0,0-2.25,4.95c0,.53,0,1.06,0,1.65H960.6v4.66H964v10.49H952.58A2.53,2.53,0,0,1,950.05,271.26Z" transform="translate(-944.66 -238.69)"/><path class="cls-1" d="M996.76,246h11.14a2.51,2.51,0,0,1,2.78,2.72q0,11.14,0,22.28a2.62,2.62,0,0,1-2.86,2.81H985.66a2.55,2.55,0,0,1-2.78-2.83q0-11.09,0-22.17c0-1.92.9-2.8,2.85-2.8Zm-2.94,14a7.55,7.55,0,0,1-2.29-3c-.69-2.46-2.42-2.57-4.44-2.38-1,.09-1.17.28-.69,1.12,1.24,2.21,2.45,4.45,3.86,6.55a7.73,7.73,0,0,0,7.23,3.72c.52,0,1,0,1.16-.74a14,14,0,0,1,.7-1.9c1,.79,2.88,2.4,4.05,2.66a11.06,11.06,0,0,0,2.77,0c1.1,0,1.45-.68.8-1.55a21.42,21.42,0,0,0-2.19-2.45c-1.22-1.19-1.23-1.22-.24-2.62a42.75,42.75,0,0,0,2.42-3.7c.47-.84.13-1.27-.85-1.3-.82,0-1.65,0-2.47,0a1.45,1.45,0,0,0-1.57,1,32.15,32.15,0,0,1-1.79,3.23,10.21,10.21,0,0,1-1.37,1.4,16.82,16.82,0,0,1-.25-1.82c0-1,.1-1.93,0-2.88,0-.4-.39-1.08-.64-1.1a41.52,41.52,0,0,0-4.28,0c-.19,0-.37.32-.56.49C994.52,255.76,994.82,258.27,993.82,260Z" transform="translate(-944.66 -238.69)"/><rect class="cls-1" x="0.75" y="0.75" width="69.93" height="47.11" rx="5.54" ry="5.54"/><polygon class="cls-1" points="44.8 54.78 26.63 54.78 28.9 47.86 42.53 47.86 44.8 54.78"/><line class="cls-1" x1="23.3" y1="54.78" x2="48.12" y2="54.78"/><line class="cls-1" x1="0.75" y1="41.42" x2="70.68" y2="41.42"/></svg>