<svg id="Layer_1" data-name="Layer 1" xmlns="http://www.w3.org/2000/svg" viewBox="0 0 71.43 55.53" width="100" height="100"><defs><style>.cls-1{fill:none;stroke:#333;stroke-linecap:round;stroke-linejoin:round;stroke-width:1.5px;}</style></defs><title>usability</title><rect class="cls-1" x="0.75" y="0.75" width="69.93" height="47.11" rx="5.54" ry="5.54"/><polygon class="cls-1" points="44.8 54.78 26.63 54.78 28.9 47.86 42.53 47.86 44.8 54.78"/><line class="cls-1" x1="23.3" y1="54.78" x2="48.12" y2="54.78"/><line class="cls-1" x1="0.75" y1="41.42" x2="70.68" y2="41.42"/><circle class="cls-1" cx="35.71" cy="22.19" r="6.54"/><circle class="cls-1" cx="35.71" cy="22.19" r="9.79"/><polyline class="cls-1" points="31.77 22.19 34.69 25.11 39.73 20.07"/><polyline class="cls-1" points="33.87 12.57 33.87 5.4 4.54 5.4 4.54 37.83 33.87 37.83 33.87 31.8"/><polyline class="cls-1" points="37.63 31.79 37.63 37.83 66.88 37.83 66.88 5.4 37.63 5.4 37.63 12.59"/><line class="cls-1" x1="4.55" y1="14.07" x2="30.25" y2="14.07"/><line class="cls-1" x1="16.26" y1="14.07" x2="16.26" y2="37.83"/><line class="cls-1" x1="44.72" y1="26.04" x2="66.88" y2="26.04"/></svg>