<svg id="Layer_1" data-name="Layer 1" xmlns="http://www.w3.org/2000/svg" viewBox="0 0 61.1 48.92" width="100" height="100"><defs><style>.cls-1{fill:none;stroke:#333;stroke-linecap:round;stroke-linejoin:round;stroke-width:1.5px;}</style></defs><title>web</title><path class="cls-1" d="M656.06,278.53c1.17-.2,1.53-1.27,2.11-2a20.86,20.86,0,0,0,3-6.09,20.15,20.15,0,0,0,.74-7.77,20.53,20.53,0,0,0-5.56-12.76,21.35,21.35,0,0,0-36.79,17.29,20.53,20.53,0,0,0,3.87,9.62c.53.7.9,1.61,1.93,1.76" transform="translate(-610.11 -242.24)"/><path class="cls-1" d="M643.38,267a13.66,13.66,0,0,0,2.49-3.43,4,4,0,0,1,1.56-2,3.08,3.08,0,0,0,.28-4.57,1.81,1.81,0,0,1-.64-1.5c0-3.29-2-5.58-5.26-6.31a6.45,6.45,0,0,0-7.58,6.13,1.8,1.8,0,0,1-.74,1.78c-1.34.93-.6,4.21.82,4.78a1.45,1.45,0,0,1,.76.83,14.66,14.66,0,0,0,1.81,3,4.55,4.55,0,0,0,5.66,1.47,6.6,6.6,0,0,1,.74-.19" transform="translate(-610.11 -242.24)"/><path class="cls-1" d="M643.38,267.06c.5,2.1,2.28,2.72,4,3.42,2,.81,4,1.59,5.92,2.41,1.8.75,2.1,2.39,2.32,4.06,0,.28-.08.55.08.84a1.56,1.56,0,0,1-.54,2.13,20.88,20.88,0,0,1-5.14,3.42,22.29,22.29,0,0,1-4.86,1.82A20.64,20.64,0,0,1,632.56,284a20.35,20.35,0,0,1-6.31-4c-.66-.66-1-1.19-.54-2.06.25-.51,0-1.12.12-1.66a4.55,4.55,0,0,1,3.12-3.73c2.2-.75,4.33-1.7,6.48-2.56a4.47,4.47,0,0,0,2.59-2.87" transform="translate(-610.11 -242.24)"/><path class="cls-1" d="M632.75,275.94c-.33,2.44-.49,4.9-1,7.31,0,0-.06.06-.09.09" transform="translate(-610.11 -242.24)"/><path class="cls-1" d="M648.66,275.94c.33,2.44.35,4.93,1.11,7.31" transform="translate(-610.11 -242.24)"/><path class="cls-1" d="M627.25,284.51H615.58a4.72,4.72,0,0,1-4.72-4.72V249.07a4.72,4.72,0,0,1,4.72-4.72h10.69" transform="translate(-610.11 -242.24)"/><path class="cls-1" d="M627.25,284.51" transform="translate(-610.11 -242.24)"/><path class="cls-1" d="M654.6,244.35h11.15a4.72,4.72,0,0,1,4.72,4.72v30.71a4.72,4.72,0,0,1-4.72,4.72H654" transform="translate(-610.11 -242.24)"/><polyline class="cls-1" points="37.4 45.43 38.29 48.16 22.81 48.16 23.75 45.3"/><line class="cls-1" x1="19.97" y1="48.17" x2="41.13" y2="48.17"/><line class="cls-1" x1="49.94" y1="36.78" x2="60.35" y2="36.78"/><line class="cls-1" x1="0.75" y1="36.78" x2="11.09" y2="36.78"/><polyline class="cls-1" points="8.6 12.37 5.2 12.37 5.2 32.84 8.6 32.84"/><polyline class="cls-1" points="51.86 32.84 56.01 32.84 56.01 12.37 52.51 12.37"/><polyline class="cls-1" points="8.6 12.37 5.2 12.37 5.2 6.33 12.15 6.33"/><polyline class="cls-1" points="49.22 6.33 56.01 6.33 56.01 12.37 52.51 12.37"/></svg>